Coordinates
version=1
nRows=38
nColumns=38
inDegrees=no

Units are S.I. units (second, meters, Newtons, ...)
If the header above contains a line with 'inDegrees', this indicates whether rotational values are in degrees (yes) or radians (no).

endheader
time	pelvis_tilt	pelvis_list	pelvis_rotation	pelvis_tx	pelvis_ty	pelvis_tz	hip_flexion_r	hip_adduction_r	hip_rotation_r	knee_angle_r	ankle_angle_r	subtalar_angle_r	mtp_angle_r	hip_flexion_l	hip_adduction_l	hip_rotation_l	knee_angle_l	ankle_angle_l	subtalar_angle_l	mtp_angle_l	lumbar_extension	lumbar_bending	lumbar_rotation	arm_flex_r	arm_add_r	arm_rot_r	elbow_flex_r	pro_sup_r	wrist_flex_r	wrist_dev_r	arm_flex_l	arm_add_l	arm_rot_l	elbow_flex_l	pro_sup_l	wrist_flex_l	wrist_dev_l
0	0.788278	1.36974	0.959626	0.69346	-0.933193	1.02126	0.44689	0.0789471	-0.268045	0.327575	-0.103663	0	0	0.0176434	-0.243162	0.0335528	0.828872	-0.500386	0	0	0.060691	0.194614	-0.154724	-0.0625118	-0.202816	0.259069	0.277682	1.5708	0	0	0.0303948	-0.336119	0.524505	0.750034	1.29863	0	0
0.01	0.764571	1.3655	0.990396	0.694809	-0.921158	1.0215	0.440324	0.0792106	-0.263983	0.325991	-0.0949315	0	0	0.0575843	-0.2397	0.0554149	0.885347	-0.502336	0	0	0.0682659	0.189569	-0.15593	-0.0625349	-0.203383	0.266293	0.282724	1.5708	0	0	0.0249475	-0.334728	0.526317	0.740692	1.28823	0	0
0.02	0.755508	1.36523	1.00945	0.69583	-0.90871	1.02254	0.426803	0.0782579	-0.269019	0.322637	-0.0852655	0	0	0.0893417	-0.234468	0.0791104	0.931758	-0.490491	0	0	0.0716778	0.183922	-0.159621	-0.0624506	-0.20339	0.270255	0.288767	1.5708	0	0	0.0214653	-0.333316	0.531585	0.728014	1.27802	0	0
0.03	0.752459	1.36706	1.0225	0.696823	-0.896217	1.02413	0.409724	0.0776404	-0.276506	0.316912	-0.0776888	0	0	0.116859	-0.228548	0.103038	0.968118	-0.471793	0	0	0.0718528	0.178195	-0.162375	-0.0604742	-0.202235	0.270216	0.29214	1.5708	0	0	0.020405	-0.331684	0.539635	0.712917	1.26879	0	0
0.04	0.751565	1.36931	1.03047	0.697808	-0.883702	1.02591	0.392225	0.0783685	-0.285106	0.310672	-0.0723714	0	0	0.141895	-0.222427	0.117471	1.00576	-0.438595	0	0	0.070889	0.173105	-0.161713	-0.0588978	-0.201721	0.267027	0.297081	1.5708	0	0	0.0197678	-0.32953	0.548417	0.697507	1.26029	0	0
0.05	0.754113	1.3739	1.03144	0.699031	-0.871111	1.02801	0.372583	0.0801699	-0.289387	0.304317	-0.0686588	0	0	0.162084	-0.216155	0.124448	1.03882	-0.39803	0	0	0.0667822	0.167346	-0.156755	-0.0578853	-0.201646	0.265349	0.303999	1.5708	0	0	0.019863	-0.328137	0.558451	0.683069	1.2538	0	0
0.06	0.764784	1.38076	1.02134	0.700413	-0.858345	1.03034	0.349587	0.083651	-0.290014	0.296849	-0.0658349	0	0	0.177954	-0.2116	0.119581	1.07324	-0.346793	0	0	0.0597545	0.161539	-0.14792	-0.0584584	-0.202597	0.266862	0.313855	1.5708	0	0	0.0199381	-0.328094	0.570071	0.671353	1.24835	0	0
0.07	0.767718	1.38981	1.01834	0.701999	-0.845904	1.03309	0.325188	0.0851464	-0.289593	0.288546	-0.0648376	0	0	0.190461	-0.203343	0.123515	1.08865	-0.311993	0	0	0.0510413	0.152868	-0.139166	-0.0565439	-0.202085	0.269848	0.321219	1.5708	0	0	0.0198973	-0.328626	0.578916	0.659501	1.24484	0	0
0.08	0.759651	1.39543	1.02605	0.70313	-0.833382	1.03553	0.305225	0.0854687	-0.289871	0.282459	-0.0639454	0	0	0.207458	-0.195089	0.121843	1.10568	-0.274907	0	0	0.0518099	0.144759	-0.135301	-0.0555938	-0.202837	0.274355	0.32867	1.5708	0	0	0.0152417	-0.327626	0.585867	0.64547	1.241	0	0
0.09	0.740576	1.39753	1.04495	0.704025	-0.821044	1.03759	0.289787	0.0851544	-0.289156	0.277984	-0.0630711	0	0	0.228812	-0.186406	0.121831	1.11825	-0.244242	0	0	0.0537099	0.137282	-0.129998	-0.0557012	-0.204155	0.271769	0.339652	1.5708	0	0	0.0101001	-0.327221	0.589928	0.636483	1.24042	0	0
0.1	0.729767	1.40271	1.05178	0.705222	-0.808639	1.03989	0.269827	0.0861863	-0.284248	0.272488	-0.0624167	0	0	0.244271	-0.180493	0.113502	1.12378	-0.215811	0	0	0.0483814	0.129314	-0.116932	-0.0582647	-0.205948	0.263654	0.356402	1.5708	0	0	0.0067428	-0.32875	0.593867	0.632902	1.24337	0	0
0.11	0.707552	1.40609	1.07048	0.706308	-0.796196	1.04212	0.251384	0.0864093	-0.280624	0.263739	-0.0637976	0	0	0.26169	-0.174222	0.10549	1.12298	-0.195432	0	0	0.0516192	0.121149	-0.110921	-0.0593092	-0.20716	0.262245	0.368046	1.5708	0	0	-0.00194886	-0.329079	0.594433	0.625271	1.2448	0	0
0.12	0.700245	1.41252	1.07503	0.707318	-0.784079	1.04437	0.22946	0.0865389	-0.280967	0.255544	-0.0664032	0	0	0.275098	-0.16942	0.0967187	1.1177	-0.175372	0	0	0.0443954	0.113371	-0.0991885	-0.0629063	-0.210015	0.257251	0.388196	1.5708	0	0	-0.00706301	-0.331953	0.594271	0.62599	1.24752	0	0
0.13	0.691063	1.41859	1.08133	0.708257	-0.772005	1.04658	0.207914	0.0863803	-0.284188	0.246309	-0.0697834	0	0	0.288282	-0.164891	0.0871849	1.10675	-0.159961	0	0	0.0379001	0.107038	-0.0872064	-0.0687819	-0.213658	0.24607	0.412155	1.5708	0	0	-0.0113446	-0.332348	0.592826	0.623638	1.24778	0	0
0.14	0.681694	1.42408	1.08735	0.709176	-0.759992	1.04868	0.186721	0.0865162	-0.2887	0.235913	-0.0742735	0	0	0.30078	-0.161642	0.0767216	1.09057	-0.146052	0	0	0.0332772	0.100641	-0.0772846	-0.0728268	-0.216075	0.235456	0.43268	1.5708	0	0	-0.0173141	-0.332899	0.590056	0.621533	1.24547	0	0
0.15	0.673723	1.42878	1.0916	0.710024	-0.748067	1.05068	0.166529	0.0870693	-0.292593	0.226193	-0.079987	0	0	0.312624	-0.159771	0.0655361	1.06948	-0.133816	0	0	0.0289593	0.0952126	-0.0678802	-0.0761718	-0.218666	0.225729	0.452719	1.5708	0	0	-0.0236622	-0.333077	0.58646	0.619757	1.24098	0	0
0.16	0.66558	1.43266	1.0959	0.710768	-0.736173	1.05253	0.146959	0.0877876	-0.296846	0.216006	-0.0866986	0	0	0.324225	-0.158749	0.0535086	1.04448	-0.123165	0	0	0.0253825	0.0904687	-0.0590971	-0.0793585	-0.221291	0.215855	0.472538	1.5708	0	0	-0.0301017	-0.332773	0.582731	0.61761	1.23508	0	0
0.17	0.656937	1.43619	1.10031	0.711525	-0.724255	1.05422	0.127501	0.0886105	-0.301779	0.205249	-0.0937982	0	0	0.335634	-0.158035	0.0394232	1.01562	-0.114514	0	0	0.0226019	0.0858631	-0.0503157	-0.0823347	-0.223369	0.205167	0.491425	1.5708	0	0	-0.0364767	-0.332314	0.579506	0.614928	1.22764	0	0
0.18	0.641635	1.43997	1.11004	0.712366	-0.712122	1.05594	0.10761	0.088682	-0.304144	0.193662	-0.102348	0	0	0.345364	-0.156622	0.020873	0.979509	-0.108805	0	0	0.028024	0.0765662	-0.0548544	-0.0712192	-0.219696	0.214021	0.486797	1.5708	0	0	-0.0559162	-0.335982	0.567694	0.616923	1.215	0	0
0.19	0.631985	1.44345	1.11453	0.713048	-0.700111	1.0573	0.0880963	0.0891543	-0.304444	0.183849	-0.108331	0	0	0.353674	-0.156646	0.0023906	0.940154	-0.105376	0	0	0.0265451	0.0712639	-0.0515158	-0.0679768	-0.221617	0.21641	0.498069	1.5708	0	0	-0.067536	-0.33685	0.559112	0.618242	1.20687	0	0
0.2	0.617924	1.44614	1.12259	0.713735	-0.688209	1.05841	0.0704059	0.0891616	-0.305701	0.175695	-0.114092	0	0	0.361375	-0.157102	-0.017125	0.897022	-0.103934	0	0	0.0250924	0.0660275	-0.0462117	-0.065933	-0.223585	0.21529	0.511333	1.5708	0	0	-0.0776839	-0.337187	0.551002	0.618875	1.19923	0	0
0.21	0.596628	1.44776	1.13674	0.714467	-0.676402	1.05926	0.0552733	0.0884548	-0.309669	0.169555	-0.119703	0	0	0.368803	-0.157183	-0.0373463	0.849821	-0.105196	0	0	0.0248758	0.0606223	-0.0393088	-0.0640527	-0.225476	0.213337	0.524205	1.5708	0	0	-0.0865113	-0.337103	0.544315	0.618086	1.19262	0	0
0.22	0.570199	1.44973	1.15567	0.715195	-0.664618	1.05992	0.0400339	0.086929	-0.311141	0.163417	-0.124917	0	0	0.373699	-0.155308	-0.0559327	0.796593	-0.110074	0	0	0.0244054	0.0544717	-0.0318642	-0.0618571	-0.226944	0.210645	0.536256	1.5708	0	0	-0.0940911	-0.337591	0.540057	0.617608	1.18788	0	0
0.23	0.520982	1.45062	1.19849	0.715793	-0.65304	1.06034	0.0270461	0.0829364	-0.311155	0.157244	-0.129302	0	0	0.375626	-0.145104	-0.059035	0.7309	-0.117156	0	0	0.0252799	0.0458402	-0.0252681	-0.0593078	-0.227327	0.206184	0.547175	1.5708	0	0	-0.100085	-0.338467	0.537103	0.61606	1.18487	0	0
0.24	0.458456	1.45119	1.25449	0.716358	-0.641602	1.06057	0.0147553	0.0772841	-0.311179	0.150612	-0.13304	0	0	0.373391	-0.130947	-0.0545058	0.653765	-0.127656	0	0	0.0264302	0.0355108	-0.0182516	-0.0559021	-0.226984	0.201345	0.556353	1.5708	0	0	-0.104608	-0.339778	0.53579	0.614029	1.18392	0	0
0.25	0.408142	1.45342	1.29692	0.716929	-0.630007	1.06071	-0.000140418	0.0721884	-0.311316	0.144499	-0.136806	0	0	0.367337	-0.120994	-0.0591967	0.573469	-0.145375	0	0	0.024794	0.026439	-0.00944953	-0.0527777	-0.227152	0.195609	0.566448	1.5708	0	0	-0.108195	-0.340888	0.534941	0.612211	1.18401	0	0
0.26	0.365478	1.45492	1.33172	0.71737	-0.618178	1.06044	-0.0149066	0.0676299	-0.312657	0.138847	-0.139514	0	0	0.362124	-0.114007	-0.0700896	0.494891	-0.165078	0	0	0.0236311	0.0189511	-0.00106265	-0.051152	-0.228025	0.189193	0.578738	1.5708	0	0	-0.112903	-0.341713	0.532495	0.611583	1.18442	0	0
0.27	0.333349	1.45598	1.35532	0.717732	-0.606321	1.05972	-0.0296163	0.0639758	-0.312194	0.133567	-0.141022	0	0	0.358438	-0.10929	-0.0849721	0.420945	-0.186016	0	0	0.022355	0.0133112	0.00783303	-0.0512229	-0.23015	0.182223	0.594093	1.5708	0	0	-0.118232	-0.342169	0.528495	0.612511	1.1849	0	0
0.28	0.313749	1.45596	1.36596	0.71804	-0.594557	1.05857	-0.0432291	0.0622314	-0.309477	0.129466	-0.14094	0	0	0.357654	-0.106533	-0.101574	0.353982	-0.203161	0	0	0.0212242	0.00982339	0.0165376	-0.0509591	-0.23333	0.176655	0.61011	1.5708	0	0	-0.123479	-0.342254	0.524073	0.614415	1.18566	0	0
0.29	0.307159	1.45422	1.36411	0.71822	-0.582809	1.05698	-0.0555265	0.0623956	-0.307687	0.12487	-0.14026	0	0	0.360304	-0.105382	-0.118235	0.293329	-0.219166	0	0	0.0213492	0.00848431	0.0251389	-0.0515	-0.237057	0.170941	0.626692	1.5708	0	0	-0.128316	-0.34141	0.518839	0.615867	1.18693	0	0
0.3	0.30551	1.44988	1.35884	0.718196	-0.571024	1.05487	-0.0652938	0.0636651	-0.307155	0.120521	-0.138835	0	0	0.367257	-0.104458	-0.131979	0.238523	-0.229634	0	0	0.0246454	0.00833399	0.0317791	-0.0518952	-0.24062	0.16592	0.641624	1.5708	0	0	-0.133215	-0.340025	0.513895	0.616375	1.18837	0	0
0.31	0.305346	1.44426	1.35293	0.718042	-0.559219	1.05237	-0.0738372	0.0653114	-0.306519	0.11658	-0.136531	0	0	0.376678	-0.103504	-0.144015	0.18865	-0.238195	0	0	0.029202	0.00882023	0.0376364	-0.0530811	-0.24406	0.15996	0.656585	1.5708	0	0	-0.138069	-0.338083	0.507967	0.616436	1.18944	0	0
0.32	0.307359	1.43749	1.34572	0.717752	-0.547349	1.04952	-0.0813814	0.0673193	-0.30611	0.112829	-0.133653	0	0	0.387737	-0.102394	-0.152722	0.142384	-0.243952	0	0	0.0348697	0.010009	0.042496	-0.0541801	-0.247317	0.154265	0.6704	1.5708	0	0	-0.142897	-0.335863	0.5019	0.616237	1.19039	0	0
0.33	0.312353	1.4304	1.33537	0.717383	-0.535397	1.04641	-0.0886316	0.0696001	-0.304751	0.109752	-0.13033	0	0	0.398537	-0.101333	-0.15686	0.0979279	-0.246258	0	0	0.0407873	0.0119353	0.0472057	-0.0548036	-0.250669	0.149776	0.682938	1.5708	0	0	-0.147294	-0.333165	0.496057	0.615067	1.19139	0	0
0.34	0.324111	1.4248	1.31707	0.716894	-0.523479	1.04324	-0.0971696	0.0719468	-0.301327	0.108379	-0.126471	0	0	0.406415	-0.100714	-0.155312	0.0544292	-0.24569	0	0	0.0441949	0.0150958	0.0527068	-0.0544129	-0.254858	0.146633	0.695087	1.5708	0	0	-0.150349	-0.329562	0.490697	0.612886	1.19236	0	0
0.35	0.334679	1.41867	1.30068	0.716213	-0.511397	1.03992	-0.104761	0.0738032	-0.300795	0.108143	-0.122488	0	0	0.41461	-0.0998602	-0.149614	0.0145246	-0.243856	0	0	0.0480359	0.0184326	0.0573834	-0.053747	-0.259001	0.144207	0.705705	1.5708	0	0	-0.152811	-0.325619	0.485769	0.609659	1.19326	0	0
0.36	0.343545	1.41312	1.2875	0.715466	-0.499214	1.0366	-0.112187	0.0752065	-0.302978	0.10925	-0.119732	0	0	0.425094	-0.0991466	-0.148068	0	-0.240372	0	0	0.0511116	0.0208914	0.059881	-0.0511696	-0.262018	0.143418	0.712733	1.5708	0	0	-0.154647	-0.322971	0.483019	0.606702	1.19369	0	0
0.37	0.348961	1.40693	1.27796	0.714692	-0.486906	1.03322	-0.117416	0.0759088	-0.305035	0.11368	-0.113748	0	0	0.437926	-0.0985404	-0.149297	0	-0.230131	0	0	0.0554767	0.023292	0.0631724	-0.0498967	-0.265374	0.142976	0.71953	1.5708	0	0	-0.155071	-0.31903	0.47967	0.600693	1.19562	0	0
